
<svg version="1.0" xmlns="http://www.w3.org/2000/svg"
 width="172.000000pt" height="172.000000pt" viewBox="0 0 172.000000 172.000000"
 preserveAspectRatio="xMidYMid meet">

<g class="seat" transform="translate(0.000000,172.000000) scale(0.100000,-0.100000)"
fill="#000000" stroke="none">
<path d="M559 1707 c-114 -32 -169 -122 -169 -278 l0 -77 -70 -10 c-89 -13
-153 -44 -210 -102 -57 -56 -88 -119 -101 -204 -16 -99 -7 -741 11 -786 41
-107 125 -192 225 -227 46 -16 99 -18 615 -18 516 0 569 2 615 18 71 25 140
79 179 140 61 96 61 96 61 512 0 338 -2 385 -18 430 -47 132 -160 220 -308
240 l-46 6 -5 97 c-7 137 -42 202 -135 248 -34 17 -66 19 -318 21 -202 2 -293
-1 -326 -10z"/>
</g>
</svg>
